<svg width="152" height="66" viewBox="0 0 152 66" fill="none" xmlns="http://www.w3.org/2000/svg">
<path d="M86.2592 29.2541V23.5597C86.2592 22.8228 86.1866 22.1663 86.0414 21.6035C85.8961 21.0408 85.6662 20.5584 85.3515 20.1297C85.0611 19.7143 84.6617 19.366 84.1535 19.1114C83.6452 18.8568 83.1006 18.7228 82.4955 18.7228H80.4866V13.5242H83.5363C85.0611 13.5242 86.3923 13.7385 87.5299 14.1807C88.6675 14.6229 89.6719 15.333 90.519 16.3245C91.233 17.1686 91.7413 18.2405 92.0318 19.5402C92.3222 20.8398 92.4674 22.2601 92.4674 23.8009V34.4662H76.0452V29.2675H86.2592V29.2541Z" fill="#0A183D"/>
<path d="M122.637 37.8027C122.129 37.307 121.512 37.0658 120.774 37.0658C120.035 37.0658 119.418 37.307 118.91 37.8027C118.402 38.2985 118.16 38.9416 118.16 39.7321C118.16 40.603 118.414 41.2596 118.934 41.7017C119.455 42.1439 120.06 42.3717 120.786 42.3717C121.512 42.3717 122.117 42.1439 122.637 41.7017C123.158 41.2596 123.412 40.603 123.412 39.7321C123.412 38.9416 123.158 38.2985 122.662 37.8027H122.637Z" fill="#0A183D"/>
<path d="M128.059 37.0524C127.321 37.0524 126.704 37.2935 126.195 37.7893C125.687 38.285 125.445 38.9282 125.445 39.7187C125.445 40.5896 125.699 41.2461 126.219 41.6883C126.74 42.1304 127.345 42.3582 128.071 42.3582C128.797 42.3582 129.402 42.1304 129.923 41.6883C130.443 41.2461 130.697 40.5896 130.697 39.7187C130.697 38.9282 130.455 38.285 129.959 37.7893C129.463 37.2935 128.846 37.0524 128.083 37.0524H128.059Z" fill="#0A183D"/>
<path d="M151.355 15.1323C151.355 14.2345 150.714 13.4976 149.915 13.4708L143.029 13.1895C141.347 13.1895 139.81 13.4306 138.394 13.913C136.978 14.3953 135.768 15.0787 134.751 15.9764C133.735 16.8741 132.936 17.9594 132.367 19.2456C131.798 20.5319 131.508 21.9923 131.508 23.6404C131.508 25.5028 131.811 27.0838 132.404 28.4237C132.537 28.7185 132.682 28.9998 132.839 29.2678H127.03V13.5244H120.846V29.2544H115.304H114.36L114.396 15.1323C114.396 14.2345 113.755 13.4976 112.956 13.4708L106.07 13.1895C104.388 13.1895 102.851 13.4306 101.435 13.913C100.019 14.3953 98.8088 15.0787 97.7922 15.9764C96.7757 16.8741 95.977 17.9594 95.4082 19.2456C94.8394 20.5319 94.549 21.9923 94.549 23.6404C94.549 25.5028 94.8515 27.0838 95.4445 28.4237C96.0375 29.7501 96.8604 30.8354 97.8891 31.6795C98.9298 32.5237 100.152 33.14 101.556 33.542C102.742 33.8769 105.477 34.4129 106.808 34.4665H108.164V36.1949C108.164 36.3021 108.151 36.4093 108.139 36.503C108.006 37.6821 107.171 38.62 106.106 38.754C106.009 38.754 105.925 38.7808 105.828 38.7808H105.199V42.6664H105.828C110.511 42.6664 114.36 40.5092 114.36 36.1949V34.4799H115.316H132.537H144.118C144.227 34.4799 144.324 34.4799 144.433 34.4665H149.866C150.701 34.4799 151.367 33.7429 151.367 32.8184V15.1323H151.355ZM108.139 29.2544H106.155C105.392 29.2544 104.678 29.1472 104.025 28.9194C103.359 28.6917 102.79 28.3567 102.294 27.9145C101.798 27.4724 101.411 26.9096 101.132 26.2531C100.854 25.5966 100.709 24.8329 100.709 23.9619C100.709 23.1714 100.854 22.4479 101.157 21.8048C101.459 21.1616 101.858 20.6123 102.367 20.1433C102.875 19.6878 103.456 19.326 104.109 19.0848C104.775 18.8303 105.453 18.7097 106.143 18.7097H108.127V29.2276L108.139 29.2544ZM138.14 21.8182C138.442 21.175 138.842 20.6257 139.35 20.1567C139.858 19.7012 140.439 19.3394 141.093 19.0982C141.758 18.8437 142.436 18.7231 143.126 18.7231H145.11V29.241H143.126C142.363 29.241 141.661 29.1338 140.996 28.906C140.33 28.6783 139.761 28.3433 139.265 27.9011C138.769 27.459 138.382 26.8962 138.103 26.2397C137.825 25.5832 137.68 24.8195 137.68 23.9485C137.68 23.158 137.825 22.4345 138.128 21.7914L138.14 21.8182Z" fill="#0A183D"/>
<path d="M140.887 9.66554C141.432 10.1345 142.073 10.3757 142.823 10.3757C143.574 10.3757 144.203 10.1345 144.76 9.66554C145.304 9.19659 145.582 8.49986 145.582 7.58876C145.582 6.77144 145.316 6.10151 144.796 5.60576C144.275 5.09662 143.61 4.84204 142.835 4.84204C142.061 4.84204 141.395 5.09662 140.875 5.60576C140.354 6.11491 140.088 6.77144 140.088 7.58876C140.088 8.49986 140.367 9.19659 140.911 9.66554H140.887Z" fill="#0A183D"/>
<path d="M60.8332 10.2952L57.3721 6.77138L63.6287 0.433838L70.4179 0.567824L60.8332 10.2952Z" fill="#FF5700"/>
<path d="M72.8019 20.4379C72.7535 20.0895 72.7051 19.7814 72.6567 19.5268C72.6083 19.3392 72.5599 19.1516 72.4993 18.9641C72.2452 18.0664 71.87 17.3026 71.386 16.6461C71.3013 16.5389 71.2287 16.4183 71.1439 16.3111C70.2968 15.3196 69.2924 14.6095 68.1548 14.1674C67.7675 14.02 67.3561 13.9128 66.9325 13.819C66.0854 13.6314 65.1656 13.5242 64.1612 13.5242H57.6504L57.7835 13.3768L54.4071 9.8396L50.7281 13.5376C50.7765 14.6497 50.7281 17.3562 50.7281 18.7095H63.0962C63.7013 18.7095 64.258 18.8435 64.7542 19.1248C65.2625 19.3928 65.6618 19.7412 65.9522 20.1699C66.2669 20.5853 66.4968 21.081 66.6421 21.6438C66.7873 22.2065 66.8599 24.5513 66.8599 25.3016V29.281H49.5906C48.7434 29.281 48.1867 29.1604 47.3275 28.9326C46.4683 28.6915 46.0447 28.3297 45.5122 27.8339C45.5122 26.6549 45.5364 25.6098 45.5364 24.2967V13.5242H45.488V13.484H39.2556V26.1859C39.2556 28.4905 38.2148 29.6428 36.1333 29.6428H35.9881C33.9066 29.6428 32.8658 28.4905 32.8658 26.1859V17.3026H32.8295V17.2624H26.5971V26.1993C26.5971 28.5039 25.5563 29.6562 23.4748 29.6562H23.027C21.127 29.6562 20.0984 28.6915 19.9289 26.7621V21.885H19.9047V13.4974H13.6723V26.1993C13.6723 26.4539 13.6844 26.6951 13.6965 26.9362V34.5868C13.6965 36.8914 12.6557 38.0437 10.5742 38.0437H10.1265C8.04494 38.0437 7.00417 36.8914 7.00417 34.5868V21.885H0.771729V34.5868C0.771729 40.3483 3.894 43.2156 10.1265 43.2156H10.5742C16.8067 43.2156 19.9289 40.911 19.9289 36.3153V34.5467C20.8608 34.7342 21.8894 34.8414 23.027 34.8414H23.4748C26.2824 34.8414 28.4486 34.3725 29.9856 33.448C31.4862 34.3725 33.483 34.8414 35.976 34.8414H36.1212C40.1027 34.8414 42.8135 33.8901 44.2536 32.0143C44.3747 32.2019 44.5199 32.3761 44.6651 32.5503C44.9677 32.912 45.3549 33.2336 45.8269 33.515C46.2989 33.7963 46.8676 34.0241 47.5211 34.1983C48.1141 34.3591 48.574 34.4395 49.3243 34.4529H73.0923V25.4892C73.0923 24.2431 72.9955 21.952 72.8019 20.4379Z" fill="#0A183D"/>
<path d="M43.7333 58.1015V59.2538L43.6123 59.3744H43.0193C42.6683 59.3744 42.269 59.2806 41.8333 59.0796L41.7849 59.1734C42.2811 59.6155 42.7167 60.0979 43.104 60.6204L42.7651 61.8933C42.1964 62.1881 41.5187 62.4292 40.7441 62.6168C39.9696 62.8044 39.1951 62.8982 38.4327 62.8982C35.7098 62.8982 34.3544 61.7325 34.3544 59.4145C34.3544 58.6508 34.4754 57.9407 34.7174 57.2842L35.6251 57.11L35.6977 57.177C35.5161 57.7933 35.4193 58.423 35.4193 59.0662C35.4193 59.9103 35.6856 60.5132 36.206 60.9018C36.7263 61.2904 37.5493 61.4779 38.6747 61.4779C39.9938 61.4779 41.1072 61.2904 42.0269 60.9018C41.2282 59.8567 40.248 59.0126 39.0983 58.3963L39.4855 57.2574L39.5703 57.2172C40.1027 57.5119 40.5626 57.6995 40.962 57.7933C41.3492 57.8871 41.8091 57.9273 42.3053 57.9273H43.6123L43.7333 58.0747V58.1015ZM37.4887 63.5949L38.3238 64.707L37.2709 65.6717L36.4359 64.5596L37.4887 63.5949ZM39.3766 63.5949L40.2117 64.707L39.1709 65.6717L38.3238 64.5596L39.3766 63.5949Z" fill="#0A183D"/>
<path d="M43.5155 57.9542H45.5607C45.6817 57.9542 45.7422 58.0212 45.7422 58.1552V59.1869C45.7422 59.3209 45.6817 59.3879 45.5607 59.3879H43.5155C43.3944 59.3879 43.3339 59.3209 43.3339 59.1869V58.1552C43.3339 58.0212 43.3944 57.9542 43.5155 57.9542Z" fill="#0A183D"/>
<path d="M45.5607 57.9542H47.6059C47.7269 57.9542 47.7874 58.0212 47.7874 58.1552V59.1869C47.7874 59.3209 47.7269 59.3879 47.6059 59.3879H45.5607C45.4397 59.3879 45.3792 59.3209 45.3792 59.1869V58.1552C45.3792 58.0212 45.4397 57.9542 45.5607 57.9542Z" fill="#0A183D"/>
<path d="M47.6058 57.9542H49.6511C49.7721 57.9542 49.8326 58.0212 49.8326 58.1552V59.1869C49.8326 59.3209 49.7721 59.3879 49.6511 59.3879H47.6058C47.4848 59.3879 47.4243 59.3209 47.4243 59.1869V58.1552C47.4243 58.0212 47.4848 57.9542 47.6058 57.9542Z" fill="#0A183D"/>
<path d="M54.4313 58.1016V59.2405L54.3103 59.3744H54.0682C53.5721 59.3744 53.0638 59.0931 52.5313 58.5303L52.0593 59.3744H49.6511L49.4695 59.1735V58.0882L49.6511 57.9408H51.7689V54.216H52.9186V57.6058C53.209 57.8336 53.6084 57.9408 54.1046 57.9408H54.2982L54.4192 58.0882L54.4313 58.1016ZM52.2046 52.8091L51.3695 51.7104L52.4345 50.7457L53.2574 51.8444L52.2046 52.8091Z" fill="#0A183D"/>
<path d="M54.3103 57.9542H56.3555C56.4765 57.9542 56.5371 58.0212 56.5371 58.1552V59.1869C56.5371 59.3209 56.4765 59.3879 56.3555 59.3879H54.3103C54.1893 59.3879 54.1288 59.3209 54.1288 59.1869V58.1552C54.1288 58.0212 54.1893 57.9542 54.3103 57.9542Z" fill="#0A183D"/>
<path d="M63.2778 58.0747V59.2538L63.1567 59.3744H62.5274C61.6924 59.3744 60.8816 59.1734 60.0829 58.7848C59.3084 59.1734 58.3523 59.3744 57.2389 59.3744H56.3676L56.2466 59.1868V58.1417L56.3676 57.9407H58.8243C58.2071 57.4316 57.7351 56.8286 57.4084 56.1185C57.6504 55.2074 58.0256 54.4973 58.5217 54.0015C59.0179 53.5058 59.5383 53.2512 60.0829 53.2512C60.7122 53.2512 61.2204 53.4924 61.6077 53.9613C61.995 54.4303 62.2007 55.0198 62.2007 55.73C62.2007 56.5473 61.9223 57.2574 61.3536 57.8871C61.644 57.9273 62.0797 57.9407 62.6727 57.9407H63.1809L63.302 58.0613L63.2778 58.0747ZM58.7275 52.1525L57.8924 51.0672L58.9453 50.1025L59.6956 51.0806L60.7485 50.1159L61.5714 51.2012L60.5185 52.1659L59.7682 51.1878L58.7275 52.1525ZM59.8529 54.6581C59.5746 54.6581 59.3084 54.7787 59.0663 55.0064C58.8243 55.2342 58.6185 55.529 58.4612 55.8907C58.8606 56.6679 59.4657 57.2306 60.2765 57.6058C60.5427 57.4048 60.7364 57.1636 60.8816 56.8822C61.0268 56.6009 61.0994 56.3329 61.0994 56.0649C61.0994 55.6496 60.9905 55.3146 60.7727 55.06C60.5548 54.8055 60.2523 54.6715 59.865 54.6715L59.8529 54.6581Z" fill="#0A183D"/>
<path d="M67.9249 58.1014V59.2403L67.8039 59.3742H67.5618C67.0657 59.3742 66.5574 59.0929 66.0249 58.5301L65.5529 59.3742H63.1447L62.9631 59.1733V58.088L63.1447 57.9406H65.2625V54.2158H66.4122V57.6056C66.7026 57.8334 67.102 57.9406 67.5981 57.9406H67.7918L67.9128 58.088L67.9249 58.1014ZM64.6816 52.9295L63.8466 51.8442L64.8994 50.8795L65.6497 51.8576L66.7026 50.8929L67.5255 51.9782L66.4727 52.9429L65.7224 51.9648L64.6816 52.9295Z" fill="#0A183D"/>
<path d="M70.3452 48.8699V59.3878H67.8038L67.6707 59.2404V58.1283L67.8038 57.9541H69.1713V48.8699H70.3452Z" fill="#0A183D"/>
<path d="M73.6611 59.3744H72.5236V48.8564H73.6611V59.3744Z" fill="#0A183D"/>
<path d="M88.8974 58.1015V59.2404L88.7764 59.3744H88.5343C88.0381 59.3744 87.5299 59.093 87.0095 58.5436L86.5254 59.3744H81.5273C79.3127 59.3744 78.1993 58.3427 78.1993 56.2659C78.1993 55.7299 78.2962 55.1404 78.4898 54.4973L79.3611 54.2963L79.4458 54.3767C79.3248 54.993 79.2522 55.5156 79.2522 55.9443C79.2522 56.641 79.4337 57.1368 79.8089 57.4584C80.184 57.7799 80.8496 57.9407 81.8057 57.9407H86.235V48.8564H87.3725V57.6057C87.663 57.8335 88.0623 57.9407 88.5585 57.9407H88.7521L88.8732 58.0881L88.8974 58.1015ZM83.8872 52.3937L83.984 53.1038C83.5484 53.211 83.0885 53.278 82.6044 53.278H81.3579V52.4875L81.9993 52.5143C81.842 52.2865 81.7573 52.0453 81.7573 51.8041C81.7573 51.429 81.8299 51.094 81.9872 50.8126C82.2777 50.6921 82.6044 50.6251 82.9312 50.6251C83.1006 50.6251 83.3547 50.6519 83.6815 50.7055L83.6331 51.4156C83.3426 51.3754 83.0764 51.362 82.8343 51.362C82.7254 51.362 82.5802 51.3754 82.4108 51.4022C82.4108 51.4558 82.3987 51.563 82.3987 51.7104C82.3987 52.0319 82.4834 52.3133 82.6528 52.5277C83.1611 52.5277 83.5484 52.4607 83.8146 52.3535L83.863 52.3803L83.8872 52.3937Z" fill="#0A183D"/>
<path d="M97.6712 58.1015V59.2404L97.5502 59.3744H97.3082C96.7999 59.3744 96.3279 59.1332 95.8801 58.6643L95.5292 59.3744H88.7764L88.6432 59.1198V58.1685L88.7764 57.9407H95.1298C95.0088 56.9224 94.7063 56.2257 94.2343 55.864C93.7502 55.5022 93.0846 55.3146 92.2254 55.3146C91.5114 55.3146 90.7127 55.3816 89.8171 55.529L89.3452 54.3499L93.9317 48.8699H94.0407L94.6337 49.915L90.7611 54.2025C91.4388 54.0551 92.0681 53.9747 92.6732 53.9747C93.6171 53.9747 94.4037 54.2695 95.0451 54.8457C95.6865 55.4352 96.0617 56.3463 96.1827 57.6058C96.4852 57.8202 96.8846 57.9273 97.3566 57.9273H97.5502L97.6712 58.0747V58.1015Z" fill="#0A183D"/>
<path d="M98.3368 60.5536L99.1718 61.6791L98.119 62.6438L97.2839 61.5183L98.3368 60.5536ZM97.5381 59.3745L97.3565 59.1735V58.0882L97.5381 57.9408H99.5591V53.7471H100.697V59.3611H97.526L97.5381 59.3745ZM101.06 61.6791L100.019 62.6438L99.1718 61.5183L100.225 60.5536L101.06 61.6791Z" fill="#0A183D"/>
<path d="M106.844 58.1014V59.2403L106.723 59.3743H106.518C106.118 59.3743 105.695 59.1733 105.223 58.7847V59.0661C105.223 61.2903 104.46 62.4024 102.923 62.4024C102.597 62.4024 102.282 62.322 101.979 62.1612L101.774 60.9419L101.858 60.8615C102.185 60.9687 102.56 61.0357 102.972 61.0357C103.347 61.0357 103.637 60.9017 103.819 60.6338C104 60.3658 104.097 59.9236 104.097 59.3073V54.2158H105.223V57.6325C105.549 57.8334 105.985 57.9406 106.53 57.9406H106.723L106.844 58.088V58.1014Z" fill="#0A183D"/>
<path d="M106.723 57.9542H108.769C108.89 57.9542 108.95 58.0212 108.95 58.1552V59.1869C108.95 59.3209 108.89 59.3879 108.769 59.3879H106.723C106.602 59.3879 106.542 59.3209 106.542 59.1869V58.1552C106.542 58.0212 106.602 57.9542 106.723 57.9542Z" fill="#0A183D"/>
<path d="M117.712 57.9808L116.901 59.3877C115.788 59.3877 114.819 59.1197 113.984 58.5704L113.488 59.3877C112.569 59.3877 111.77 59.1197 111.092 58.5838L110.983 59.3877H108.769L108.648 59.2805V58.0746L108.769 57.9674H110.088L110.572 54.4168H111.709L111.249 57.5521C111.77 57.82 112.399 57.954 113.125 57.954L113.525 54.4034H114.662L114.299 57.5923C114.892 57.8066 115.63 57.9272 116.526 57.9406C116.369 56.6544 116.175 55.3279 115.921 53.9612L117.058 53.6531C117.337 55.1269 117.554 56.574 117.7 57.9674L117.712 57.9808ZM112.798 52.9027L111.976 51.8175L113.016 50.8528L113.827 51.938L112.798 52.9027ZM113.779 51.0403L112.98 49.9818L113.997 49.0439L114.795 50.1158L113.779 51.0537V51.0403ZM113.803 51.8443L114.844 50.893L115.654 51.9782L114.626 52.9295L113.803 51.8443Z" fill="#0A183D"/>
</svg>